<svg width="64" height="64" xmlns="http://www.w3.org/2000/svg" xml:space="preserve" enable-background="new 0 0 64 64" version="1.1">

 <g>
  <title>Layer 1</title>
  <path fill="#ffffff" d="m58.00345,8l-52.0069,0c-3.31368,0 -6,2.6862 -6,6l0,36c0,3.3137 2.68632,6 6,6l52.0069,0c3.3137,0 6,-2.6863 6,-6l0,-36c0,-3.3138 -2.6863,-6 -6,-6zm4,41.1108l-18.9189,-18.9188l18.9189,-12.0556l0,30.9744zm-56.0069,-39.1108l52.0069,0c2.2056,0 4,1.7943 4,4l0,1.7664l-27.5357,17.547c-1.4902,0.9493 -3.3935,0.92 -4.8496,-0.0703l-27.6216,-18.7736l0,-0.4695c0,-2.2057 1.7945,-4 4,-4zm-4,6.8852l19.1857,13.0399l-19.1857,19.1857l0,-32.2256zm56.0069,37.1148l-52.0069,0c-1.6474,0 -3.0639,-1.0021 -3.6761,-2.4279l20.5199,-20.52l5.6548,3.8434c1.0859,0.7383 2.3418,1.1084 3.5996,1.1084c1.1953,0 2.3925,-0.334 3.4463,-1.0049l5.8424,-3.723l20.2961,20.2961c-0.6122,1.4258 -2.02868,2.4279 -3.6761,2.4279z" id="Mail"/>
  <g id="svg_1"/>
  <g id="svg_2"/>
  <g id="svg_3"/>
  <g id="svg_4"/>
  <g id="svg_5"/>
  <g id="svg_6"/>
  <g id="svg_7"/>
  <g id="svg_8"/>
  <g id="svg_9"/>
  <g id="svg_10"/>
  <g id="svg_11"/>
  <g id="svg_12"/>
  <g id="svg_13"/>
  <g id="svg_14"/>
  <g id="svg_15"/>
 </g>
</svg>